<svg width="16" height="16" fill="none" xmlns="http://www.w3.org/2000/svg"><g clip-path="url(#a)"><path d="M8 0C3.589 0 0 3.589 0 8s3.589 8 8 8 8-3.589 8-8-3.589-8-8-8Zm0 13.818A5.825 5.825 0 0 1 2.182 8 5.825 5.825 0 0 1 8 2.182 5.825 5.825 0 0 1 13.818 8 5.825 5.825 0 0 1 8 13.818Zm2.161-4.49 1.18 1.096-.595.52a4.068 4.068 0 0 1-2.677 1.01c-2.207 0-4.002-1.758-4.002-3.92 0-2.156 1.795-3.91 4.002-3.91.983 0 1.93.355 2.668 1.001l.573.501-1.13 1.131-.502-.443a2.421 2.421 0 0 0-1.61-.592c-1.325 0-2.403 1.038-2.403 2.313 0 1.28 1.078 2.32 2.404 2.32.599 0 1.17-.213 1.609-.6l.483-.427Z" fill="#fff" fill-opacity=".6"/></g><defs><clipPath id="a"><path fill="#fff" d="M0 0h16v16H0z"/></clipPath></defs></svg>