<svg width="193" height="60" fill="none" xmlns="http://www.w3.org/2000/svg"><path d="M101.731 15.075a3.896 3.896 0 0 1-3.903 3.904 3.896 3.896 0 0 1-3.904-3.904c0-2.162 1.681-3.904 3.903-3.904 2.223.06 3.904 1.802 3.904 3.904Zm-16.096 7.868v.96s-1.861-2.401-5.825-2.401c-6.547 0-11.652 4.985-11.652 11.891 0 6.847 5.045 11.892 11.652 11.892 4.024 0 5.825-2.462 5.825-2.462v1.02c0 .481.36.842.841.842h4.865V22.102h-4.865c-.48 0-.84.42-.84.84Zm0 14.474c-.9 1.322-2.702 2.463-4.864 2.463-3.844 0-6.787-2.403-6.787-6.487s2.943-6.486 6.787-6.486c2.102 0 4.024 1.201 4.864 2.462v8.048Zm9.31-15.315h5.765v22.583h-5.765V22.102Zm86.125-.6c-3.964 0-5.826 2.402-5.826 2.402V11.23h-5.766v33.454h4.865c.481 0 .841-.42.841-.841v-1.021s1.862 2.462 5.826 2.462c6.546 0 11.651-5.045 11.651-11.892 0-6.846-5.105-11.892-11.591-11.892Zm-.961 18.318c-2.222 0-3.964-1.141-4.865-2.463V29.31c.901-1.2 2.823-2.462 4.865-2.462 3.844 0 6.787 2.402 6.787 6.486s-2.943 6.487-6.787 6.487Zm-13.634-8.529v13.454h-5.765V31.952c0-3.724-1.202-5.225-4.445-5.225-1.741 0-3.543.9-4.684 2.222v15.736h-5.766V22.102h4.564c.481 0 .841.42.841.84v.962c1.682-1.742 3.904-2.402 6.126-2.402 2.523 0 4.625.72 6.307 2.162 2.042 1.681 2.822 3.843 2.822 7.627Zm-34.654-9.79c-3.964 0-5.826 2.403-5.826 2.403V11.23h-5.765v33.454h4.864c.481 0 .841-.42.841-.841v-1.021s1.862 2.462 5.826 2.462c6.546 0 11.652-5.045 11.652-11.892.06-6.846-5.045-11.892-11.592-11.892Zm-.961 18.319c-2.222 0-3.964-1.141-4.865-2.463V29.31c.901-1.2 2.823-2.462 4.865-2.462 3.844 0 6.787 2.402 6.787 6.486s-2.943 6.487-6.787 6.487ZM115.245 21.5c1.741 0 2.642.3 2.642.3v5.346s-4.804-1.621-7.807 1.802v15.796h-5.766V22.102h4.865c.48 0 .841.42.841.84v.962c1.081-1.261 3.423-2.402 5.225-2.402Zm-59.88 21.142c-.3-.721-.6-1.502-.9-2.163-.48-1.08-.961-2.102-1.382-3.063l-.06-.06A626.869 626.869 0 0 0 39.75 10.21l-.18-.36c-.48-.901-.961-1.862-1.441-2.823-.601-1.081-1.202-2.222-2.163-3.303C34.044 1.32 31.282 0 28.34 0c-3.003 0-5.706 1.321-7.688 3.604-.9 1.08-1.561 2.222-2.162 3.303-.48.96-.96 1.922-1.441 2.823l-.18.36c-4.625 9.01-9.13 18.138-13.274 27.147l-.06.12c-.42.961-.9 1.982-1.381 3.063-.3.661-.6 1.382-.9 2.163C.47 44.805.23 46.907.53 49.069a12.764 12.764 0 0 0 7.808 9.97c1.562.66 3.183.961 4.865.961.48 0 1.081-.06 1.561-.12 1.982-.24 4.024-.901 6.006-2.042 2.463-1.382 4.805-3.364 7.448-6.246 2.642 2.883 5.045 4.864 7.447 6.246 1.982 1.141 4.024 1.802 6.006 2.042.48.06 1.081.12 1.562.12 1.681 0 3.363-.3 4.864-.961 4.205-1.682 7.147-5.526 7.808-9.97.48-2.102.24-4.204-.54-6.426ZM28.28 45.766c-3.243-4.084-5.346-7.928-6.066-11.171-.3-1.382-.36-2.583-.18-3.664.12-.961.48-1.802.96-2.523 1.142-1.621 3.064-2.642 5.286-2.642 2.222 0 4.204.96 5.285 2.642.48.721.84 1.562.961 2.523.18 1.081.12 2.342-.18 3.664-.72 3.183-2.823 7.027-6.066 11.17Zm23.963 2.823c-.42 3.123-2.522 5.825-5.465 7.027-1.441.6-3.003.78-4.564.6-1.502-.18-3.003-.66-4.565-1.561-2.162-1.202-4.324-3.063-6.847-5.826 3.964-4.865 6.367-9.31 7.268-13.273.42-1.862.48-3.544.3-5.105-.24-1.502-.781-2.883-1.622-4.085-1.862-2.702-4.985-4.264-8.468-4.264-3.484 0-6.607 1.622-8.469 4.264-.84 1.202-1.38 2.583-1.621 4.085a12.47 12.47 0 0 0 .3 5.105c.901 3.964 3.363 8.468 7.267 13.333-2.462 2.763-4.684 4.624-6.846 5.826-1.562.9-3.063 1.381-4.565 1.561a9.607 9.607 0 0 1-4.564-.6c-2.943-1.202-5.045-3.904-5.466-7.027-.18-1.502-.06-3.003.54-4.685.18-.6.481-1.201.781-1.922.42-.96.901-1.982 1.382-3.003l.06-.12c4.144-8.949 8.588-18.078 13.213-26.967l.18-.36c.48-.901.961-1.862 1.442-2.763.48-.961 1.02-1.862 1.681-2.643 1.261-1.441 2.943-2.222 4.805-2.222 1.862 0 3.543.78 4.805 2.222.66.781 1.2 1.682 1.681 2.643.48.9.961 1.862 1.442 2.763l.18.36A796.638 796.638 0 0 1 49.66 38.979v.06c.48.961.9 2.042 1.381 3.003.3.72.6 1.321.781 1.922.48 1.562.66 3.063.42 4.625Z" fill="#424147"/></svg>