<svg width="193" height="39" fill="none" xmlns="http://www.w3.org/2000/svg"><path d="m9.393 19.322-4.368 4.364-4.364-4.364 4.364-4.364 4.368 4.364Zm10.59-10.597 7.479 7.482 4.364-4.364L19.983 0 8.14 11.843l4.364 4.364 7.479-7.482Zm14.961 6.233-4.364 4.364 4.364 4.364 4.36-4.364-4.36-4.364ZM19.983 29.919l-7.479-7.479L8.14 26.8l11.843 11.844 11.843-11.843-4.364-4.36-7.48 7.478Zm0-6.233 4.364-4.364-4.364-4.364-4.364 4.364 4.364 4.364Zm46.058.42v-.061c0-2.847-1.51-4.27-3.968-5.206 1.51-.85 2.786-2.182 2.786-4.572v-.06c0-3.33-2.665-5.482-6.995-5.482h-9.83v21.194h10.079c4.783 0 7.936-1.936 7.936-5.814h-.008Zm-5.814-9.061c0 1.574-1.302 2.242-3.36 2.242h-4.292v-4.474h4.602c1.967 0 3.058.786 3.058 2.179l-.008.053Zm1.182 8.479c0 1.574-1.242 2.3-3.304 2.3h-5.53v-4.656h5.387c2.393 0 3.454.88 3.454 2.303l-.007.053Zm14.429 6.395V8.725H71.16v21.194h4.678Zm25.064 0V8.725h-4.617v13.051l-9.93-13.051h-4.3v21.194h4.603V16.445l10.26 13.474h3.984Zm25.826 0L117.63 8.574h-4.3l-9.08 21.345h4.753l1.945-4.753h8.962l1.937 4.753h4.881Zm-8.475-8.872h-5.648l2.816-6.87 2.832 6.87Zm30.7 8.872V8.725h-4.617v13.051l-9.933-13.051h-4.296v21.194h4.598V16.445L144.97 29.92h3.983Zm24.067-3.42-2.963-2.998c-1.665 1.51-3.149 2.48-5.572 2.48-3.632 0-6.146-3.02-6.146-6.659v-.06c0-3.632 2.574-6.6 6.146-6.6 2.118 0 3.775.906 5.421 2.39l2.956-3.42c-1.967-1.937-4.357-3.27-8.355-3.27-6.508 0-11.05 4.935-11.05 10.949v.06c0 6.086 4.632 10.9 10.869 10.9 4.081.01 6.501-1.443 8.679-3.772h.015Zm19.896 3.42v-4.152h-11.522v-4.46h9.993v-4.152h-9.993v-4.281h11.356V8.72h-15.988v21.194l16.154.004Z" fill="#424147"/></svg>