<svg width="190" height="42" fill="none" xmlns="http://www.w3.org/2000/svg"><path fill-rule="evenodd" clip-rule="evenodd" d="M15.627 36.07c1.464 0 2.835-.267 4.126-.787 0 .047 2.63 4.127 2.677 4.142a15.56 15.56 0 0 1-7.575 1.843C6.775 41.284.916 35.944.916 27.455c0-8.552 6.143-13.86 13.939-13.86 2.756 0 4.945.598 7.134 1.764l-2.52 4.253a11.04 11.04 0 0 0-4.095-.756c-4.772 0-8.473 3.04-8.473 8.6 0 5.26 3.575 8.615 8.726 8.615ZM35.99 13.596c7.938 0 13.687 5.623 13.687 13.86 0 8.19-5.749 13.813-13.703 13.813-7.875 0-13.623-5.623-13.623-13.813 0-8.237 5.748-13.86 13.64-13.86Zm0 5.071c-4.425 0-7.654 3.418-7.654 8.79 0 5.323 3.229 8.74 7.654 8.74 4.536 0 7.718-3.417 7.718-8.74 0-5.372-3.182-8.79-7.718-8.79ZM53.442 40.67V14.193h5.922v26.46h-5.922v.017Zm-.787-34.62a3.717 3.717 0 0 1 7.418 0 3.78 3.78 0 0 1-3.701 3.78 3.78 3.78 0 0 1-3.702-3.78h-.015Zm11.875 9.813a35.498 35.498 0 0 1 12.128-2.268c6.772 0 11.056 2.567 11.056 10.033V40.67h-5.843V24.18c0-3.828-2.378-5.198-5.67-5.198-2.095 0-4.19.283-5.749.771v20.9h-5.906v-24.79h-.016ZM92.675.018h5.922v14.884c1.26-.661 3.702-1.307 6.033-1.307 7.654 0 13.387 4.882 13.387 13.388 0 8.552-5.67 14.285-15.466 14.285-3.828 0-7.182-.787-9.876-1.732V.018Zm5.922 35.627c1.135.362 2.631.551 4.127.551 5.434 0 9.324-2.992 9.324-9.087 0-5.15-3.654-8.19-8.127-8.19-2.331 0-4.127.598-5.324 1.26v15.466Zm36.541-12.726c0-2.866-2.174-4.19-5.103-4.19-3.04 0-5.434.898-7.639 2.158v-5.15a17.655 17.655 0 0 1 8.599-2.142c5.796 0 9.923 2.394 9.923 9.025v17.514c-2.52.662-6.095 1.071-9.088 1.071-6.867 0-11.891-2.079-11.891-8.064 0-5.387 4.599-8.017 12.253-8.017h2.93V22.92h.016Zm0 6.143h-2.52c-4.127 0-6.82 1.212-6.82 3.906 0 2.74 2.52 3.811 6.095 3.811.898 0 2.158-.11 3.229-.283v-7.419l.016-.015Zm10.08 4.441a13.89 13.89 0 0 0 8.079 2.993c2.631 0 4.363-.898 4.363-2.993 0-2.157-1.559-2.93-4.961-3.827-5.513-1.26-7.828-3.465-7.828-8.08 0-5.37 4.064-8.001 9.45-8.001 2.993 0 5.371.646 7.592 2.032v5.434a12.272 12.272 0 0 0-7.419-2.678c-2.567 0-3.937 1.26-3.937 2.993 0 1.732 1.118 2.614 4.174 3.465 6.048 1.307 8.662 3.575 8.662 8.347 0 5.576-4.237 8.08-9.97 8.08a15.548 15.548 0 0 1-8.19-2.142v-5.623h-.015Zm26.286-4.725v.11c.363 4.726 4.41 7.308 8.553 7.308 3.638 0 6.268-.85 8.898-2.582v5.197c-2.394 1.685-5.922 2.457-9.324 2.457-8.253 0-13.86-5.26-13.86-13.624 0-8.426 5.497-14.049 12.789-14.049 7.718 0 11.356 4.961 11.356 12.19v2.993h-18.427.015Zm12.852-3.827c-.126-4.127-2.157-6.395-5.985-6.395-3.402 0-5.906 2.394-6.693 6.395h12.678Z" fill="#424147"/></svg>