<svg width="194" height="38" fill="none" xmlns="http://www.w3.org/2000/svg"><path d="m23.227 7.192-11.155 7.121 11.155 7.12-11.155 7.121-11.156-7.18 11.156-7.12L.916 7.192 12.072.072l11.155 7.12ZM12.012 30.81l11.156-7.12 11.155 7.12-11.155 7.12-11.156-7.12Zm11.215-9.435 11.156-7.12-11.156-7.062L34.323.072l11.156 7.12-11.156 7.121 11.156 7.12-11.156 7.121-11.096-7.18ZM54.2 7.192h9.019c5.755 0 10.502 3.323 10.502 10.918v1.603c0 7.654-4.45 11.096-10.324 11.096h-9.198V7.192Zm5.043 4.273v15.012H63.1c3.264 0 5.459-2.136 5.459-6.883v-1.246c0-4.747-2.314-6.883-5.637-6.883h-3.68Zm17.149.237h4.035l.652 4.45c.772-3.026 2.73-4.628 6.29-4.628h1.246v5.103h-2.077c-4.094 0-5.103 1.424-5.103 5.46v8.781h-4.984V11.702h-.06Zm13.232 9.969v-.534c0-6.409 4.094-9.91 9.672-9.91 5.697 0 9.672 3.501 9.672 9.91v.534c0 6.29-3.857 9.672-9.672 9.672-6.171-.06-9.672-3.382-9.672-9.672Zm14.241-.06v-.474c0-3.56-1.78-5.697-4.628-5.697-2.79 0-4.629 1.958-4.629 5.697v.474c0 3.442 1.78 5.4 4.629 5.4 2.848-.059 4.628-1.958 4.628-5.4Zm7.714-9.91h4.154l.474 3.62c1.009-2.432 3.145-4.094 6.29-4.094 4.866 0 8.07 3.501 8.07 9.97v.533c0 6.29-3.56 9.613-8.07 9.613-3.026 0-5.103-1.365-6.112-3.56v9.672h-4.865l.059-25.753Zm13.944 9.91v-.415c0-3.798-1.958-5.696-4.569-5.696-2.788 0-4.628 2.136-4.628 5.696v.356c0 3.383 1.78 5.519 4.569 5.519 2.848-.06 4.628-1.9 4.628-5.46Zm12.402 5.697-.415 3.501h-4.273V5.293h4.866v9.791c1.068-2.492 3.204-3.857 6.231-3.857 4.569.06 7.951 3.204 7.951 9.554v.593c0 6.35-3.204 9.969-8.07 9.969-3.204-.06-5.281-1.543-6.29-4.035Zm9.257-5.934V20.9c0-3.5-1.899-5.459-4.569-5.459-2.73 0-4.629 2.196-4.629 5.519v.415c0 3.56 1.84 5.637 4.569 5.637 2.908 0 4.629-1.84 4.629-5.637Zm7.239.297v-.534c0-6.409 4.094-9.91 9.672-9.91 5.697 0 9.672 3.501 9.672 9.91v.534c0 6.29-3.916 9.672-9.672 9.672-6.171-.06-9.672-3.382-9.672-9.672Zm14.3-.06v-.474c0-3.56-1.78-5.697-4.628-5.697-2.789 0-4.628 1.958-4.628 5.697v.474c0 3.442 1.78 5.4 4.628 5.4 2.848-.059 4.628-1.958 4.628-5.4Zm11.571-.712-6.705-9.197h5.756l3.857 5.756 3.916-5.756h5.697l-6.824 9.138 7.18 9.969h-5.637l-4.391-6.35-4.273 6.35h-5.874l7.298-9.91Z" fill="#424147"/></svg>