<svg width="140" height="140" fill="none" xmlns="http://www.w3.org/2000/svg"><path fill-rule="evenodd" clip-rule="evenodd" d="M70 138c37.555 0 68-30.445 68-68S107.555 2 70 2 2 32.445 2 70s30.445 68 68 68Zm0 2c38.66 0 70-31.34 70-70S108.66 0 70 0 0 31.34 0 70s31.34 70 70 70Z" fill="url(#a)"/><path d="M45.904 57.257c-.324-.624-.774-1.092-1.35-1.404-.576-.324-1.242-.486-1.998-.486-.828 0-1.566.186-2.214.558a3.97 3.97 0 0 0-1.53 1.584c-.36.684-.54 1.476-.54 2.376 0 .9.18 1.698.54 2.394a3.97 3.97 0 0 0 1.53 1.584c.648.372 1.386.558 2.214.558 1.116 0 2.022-.312 2.718-.936.696-.624 1.122-1.47 1.278-2.538h-4.698v-1.638h6.894v1.602a6.1 6.1 0 0 1-1.044 2.682 6.136 6.136 0 0 1-2.178 1.962c-.888.48-1.878.72-2.97.72-1.176 0-2.25-.27-3.222-.81a6.24 6.24 0 0 1-2.322-2.286c-.564-.972-.846-2.07-.846-3.294 0-1.224.282-2.322.846-3.294a6.105 6.105 0 0 1 2.322-2.268 6.475 6.475 0 0 1 3.222-.828c1.332 0 2.514.33 3.546.99 1.044.648 1.8 1.572 2.268 2.772h-2.466Zm13.958 3.708c0 .372-.024.708-.072 1.008h-7.578c.06.792.354 1.428.882 1.908s1.176.72 1.944.72c1.104 0 1.884-.462 2.34-1.386h2.214a4.498 4.498 0 0 1-1.638 2.25c-.78.576-1.752.864-2.916.864-.948 0-1.8-.21-2.556-.63a4.708 4.708 0 0 1-1.764-1.8c-.42-.78-.63-1.68-.63-2.7 0-1.02.204-1.914.612-2.682a4.428 4.428 0 0 1 1.746-1.8c.756-.42 1.62-.63 2.592-.63.936 0 1.77.204 2.502.612a4.31 4.31 0 0 1 1.71 1.728c.408.732.612 1.578.612 2.538Zm-2.142-.648c-.012-.756-.282-1.362-.81-1.818-.528-.456-1.182-.684-1.962-.684-.708 0-1.314.228-1.818.684-.504.444-.804 1.05-.9 1.818h5.49Zm6.555-2.394v5.49c0 .372.084.642.252.81.18.156.48.234.9.234h1.26v1.71h-1.62c-.924 0-1.632-.216-2.124-.648-.492-.432-.738-1.134-.738-2.106v-5.49h-1.17v-1.674h1.17v-2.466h2.07v2.466h2.412v1.674h-2.412Zm-23.303 31.37c-.84 0-1.596-.144-2.268-.432-.672-.3-1.2-.72-1.584-1.26-.384-.54-.576-1.17-.576-1.89h2.196c.048.54.258.984.63 1.332.384.348.918.522 1.602.522.708 0 1.26-.168 1.656-.504.396-.348.594-.792.594-1.332 0-.42-.126-.762-.378-1.026a2.375 2.375 0 0 0-.918-.612c-.36-.144-.864-.3-1.512-.468-.816-.216-1.482-.432-1.998-.648a3.381 3.381 0 0 1-1.296-1.044c-.36-.468-.54-1.092-.54-1.872 0-.72.18-1.35.54-1.89.36-.54.864-.954 1.512-1.242.648-.288 1.398-.432 2.25-.432 1.212 0 2.202.306 2.97.918.78.6 1.212 1.428 1.296 2.484H42.88c-.036-.456-.252-.846-.648-1.17-.396-.324-.918-.486-1.566-.486-.588 0-1.068.15-1.44.45-.372.3-.558.732-.558 1.296 0 .384.114.702.342.954.24.24.54.432.9.576.36.144.852.3 1.476.468.828.228 1.5.456 2.016.684.528.228.972.582 1.332 1.062.372.468.558 1.098.558 1.89a3.37 3.37 0 0 1-.522 1.8c-.336.564-.834 1.02-1.494 1.368-.648.336-1.416.504-2.304.504Zm9.135-8.37v5.49c0 .372.084.642.252.81.18.156.48.234.9.234h1.26v1.71H50.9c-.924 0-1.632-.216-2.124-.648-.492-.432-.738-1.134-.738-2.106v-5.49h-1.17v-1.674h1.17v-2.466h2.07v2.466h2.412v1.674h-2.412Zm3.62 3.24c0-.996.204-1.878.612-2.646.42-.768.983-1.362 1.692-1.782a4.532 4.532 0 0 1 2.376-.648c.78 0 1.458.156 2.034.468.587.3 1.055.678 1.403 1.134v-1.44h2.07v9.918h-2.07V87.69c-.348.468-.822.858-1.422 1.17-.6.312-1.283.468-2.051.468a4.406 4.406 0 0 1-2.34-.648 4.81 4.81 0 0 1-1.692-1.836c-.408-.792-.612-1.686-.612-2.682Zm8.117.036c0-.684-.144-1.278-.431-1.782a2.907 2.907 0 0 0-1.098-1.152 2.896 2.896 0 0 0-1.476-.396c-.529 0-1.02.132-1.477.396-.456.252-.828.63-1.116 1.134-.276.492-.413 1.08-.413 1.764 0 .684.138 1.284.413 1.8.288.516.66.912 1.116 1.188.468.264.96.396 1.477.396.528 0 1.02-.132 1.476-.396a2.907 2.907 0 0 0 1.098-1.152c.288-.516.431-1.116.431-1.8Zm6.818-3.51c.3-.504.696-.894 1.188-1.17.504-.288 1.098-.432 1.782-.432v2.124h-.522c-.804 0-1.416.204-1.836.612-.408.408-.612 1.116-.612 2.124v5.22H66.61v-9.918h2.052v1.44Zm7.25.234v5.49c0 .372.084.642.252.81.18.156.48.234.9.234h1.26v1.71h-1.62c-.924 0-1.632-.216-2.124-.648-.492-.432-.738-1.134-.738-2.106v-5.49h-1.17v-1.674h1.17v-2.466h2.07v2.466h2.412v1.674h-2.412Zm13.393 3.042c0 .372-.024.708-.072 1.008h-7.578c.06.792.354 1.428.882 1.908s1.176.72 1.944.72c1.104 0 1.884-.462 2.34-1.386h2.214a4.498 4.498 0 0 1-1.638 2.25c-.78.576-1.752.864-2.916.864-.948 0-1.8-.21-2.556-.63a4.708 4.708 0 0 1-1.764-1.8c-.42-.78-.63-1.68-.63-2.7 0-1.02.204-1.914.612-2.682a4.428 4.428 0 0 1 1.746-1.8c.756-.42 1.62-.63 2.592-.63.936 0 1.77.204 2.502.612a4.31 4.31 0 0 1 1.71 1.728c.408.732.612 1.578.612 2.538Zm-2.142-.648c-.012-.756-.282-1.362-.81-1.818-.528-.456-1.182-.684-1.962-.684-.708 0-1.314.228-1.818.684-.504.444-.804 1.05-.9 1.818h5.49Zm3.478.846c0-.996.204-1.878.612-2.646a4.564 4.564 0 0 1 4.086-2.43 4.51 4.51 0 0 1 1.908.432c.636.276 1.14.648 1.512 1.116v-4.788h2.07v13.32h-2.07v-1.494c-.336.48-.804.876-1.404 1.188-.588.312-1.266.468-2.034.468a4.532 4.532 0 0 1-2.376-.648 4.81 4.81 0 0 1-1.692-1.836c-.408-.792-.612-1.686-.612-2.682Zm8.118.036c0-.684-.144-1.278-.432-1.782a2.907 2.907 0 0 0-1.098-1.152 2.896 2.896 0 0 0-1.476-.396c-.528 0-1.02.132-1.476.396-.456.252-.828.63-1.116 1.134-.276.492-.414 1.08-.414 1.764 0 .684.138 1.284.414 1.8.288.516.66.912 1.116 1.188.468.264.96.396 1.476.396.528 0 1.02-.132 1.476-.396a2.907 2.907 0 0 0 1.098-1.152c.288-.516.432-1.116.432-1.8Z" fill="url(#b)"/><path d="M77.99 65.261a.719.719 0 0 1 .018-.944l.07-.068 11.012-9.24a.719.719 0 0 1 .995 1.033l-.07.068-11.013 9.24a.719.719 0 0 1-1.012-.088Z" fill="#fff"/><path d="M81.339 55.58a.719.719 0 0 1 .016-1.434l.106.002 8.152.695c.36.03.636.323.657.673l-.002.107-.73 8.15a.719.719 0 0 1-1.433-.022l.001-.106.665-7.431-7.432-.634Z" fill="#fff"/><defs><linearGradient id="a" x1="93.54" y1="-125.781" x2="186.413" y2="101.942" gradientUnits="userSpaceOnUse"><stop offset=".009" stop-color="#DEF9FA"/><stop offset=".172" stop-color="#BEF3F5"/><stop offset=".42" stop-color="#9DEDF0"/><stop offset=".551" stop-color="#7DE7EB"/><stop offset=".715" stop-color="#5CE1E6"/><stop offset="1" stop-color="#33BBCF"/></linearGradient><linearGradient id="b" x1="91.624" y1="-.05" x2="116.466" y2="95.291" gradientUnits="userSpaceOnUse"><stop offset=".009" stop-color="#DEF9FA"/><stop offset=".172" stop-color="#BEF3F5"/><stop offset=".42" stop-color="#9DEDF0"/><stop offset=".551" stop-color="#7DE7EB"/><stop offset=".715" stop-color="#5CE1E6"/><stop offset="1" stop-color="#33BBCF"/></linearGradient></defs></svg>