<svg width="64" height="64" fill="none" xmlns="http://www.w3.org/2000/svg"><circle cx="32" cy="32" r="32" fill="#09977C" fill-opacity=".1"/><path fill-rule="evenodd" clip-rule="evenodd" d="M31.565 47.862c.177.092.375.14.573.138.199-.002.395-.05.574-.144l5.708-3.052c1.62-.863 2.887-1.828 3.876-2.951A13.192 13.192 0 0 0 45.6 33.06l-.068-10.625c-.006-1.224-.81-2.316-1.999-2.713l-10.62-3.563a3.022 3.022 0 0 0-1.968.011l-10.58 3.69c-1.182.413-1.971 1.513-1.965 2.738l.068 10.617a13.197 13.197 0 0 0 3.421 8.758c.999 1.108 2.278 2.059 3.914 2.908l5.762 2.98Zm-1.511-12.488c.238.23.547.342.857.34.309-.002.617-.118.852-.35L38 29.212a1.155 1.155 0 0 0-.01-1.663 1.231 1.231 0 0 0-1.708.01l-5.39 5.312-2.207-2.122a1.231 1.231 0 0 0-1.709.012 1.154 1.154 0 0 0 .011 1.663l3.066 2.95Z" fill="#00F6FF"/></svg>