<svg width="119" height="32" fill="none" xmlns="http://www.w3.org/2000/svg"><path d="M48.088 10.292V23h-2.556v-5.526h-5.436V23h-2.538V10.292h2.538v5.148h5.436v-5.148h2.556Zm6.91 2.61c.972 0 1.842.204 2.61.612a4.45 4.45 0 0 1 1.836 1.782c.444.768.666 1.674.666 2.718s-.222 1.95-.666 2.718a4.602 4.602 0 0 1-1.836 1.782c-.768.408-1.638.612-2.61.612s-1.848-.204-2.628-.612a4.634 4.634 0 0 1-1.818-1.782c-.444-.768-.666-1.674-.666-2.718s.222-1.95.666-2.718a4.479 4.479 0 0 1 1.818-1.782c.78-.408 1.656-.612 2.628-.612Zm0 2.196a2.42 2.42 0 0 0-1.8.756c-.492.492-.738 1.212-.738 2.16 0 .948.246 1.674.738 2.178a2.45 2.45 0 0 0 1.8.738 2.45 2.45 0 0 0 1.8-.738c.492-.504.738-1.23.738-2.178s-.246-1.668-.738-2.16a2.42 2.42 0 0 0-1.8-.756Zm11.514-2.196c.972 0 1.842.204 2.61.612a4.45 4.45 0 0 1 1.836 1.782c.444.768.666 1.674.666 2.718s-.222 1.95-.666 2.718a4.602 4.602 0 0 1-1.836 1.782c-.768.408-1.638.612-2.61.612s-1.848-.204-2.628-.612a4.634 4.634 0 0 1-1.818-1.782c-.444-.768-.666-1.674-.666-2.718s.222-1.95.666-2.718a4.479 4.479 0 0 1 1.818-1.782c.78-.408 1.656-.612 2.628-.612Zm0 2.196a2.42 2.42 0 0 0-1.8.756c-.492.492-.738 1.212-.738 2.16 0 .948.246 1.674.738 2.178a2.45 2.45 0 0 0 1.8.738 2.45 2.45 0 0 0 1.8-.738c.492-.504.738-1.23.738-2.178s-.246-1.668-.738-2.16a2.42 2.42 0 0 0-1.8-.756Z" fill="#fff"/><path d="M80.51 16.448c.768.156 1.38.522 1.836 1.098.468.564.702 1.23.702 1.998 0 1.068-.36 1.914-1.08 2.538-.708.612-1.74.918-3.096.918h-5.454V10.292h5.346c1.284 0 2.268.282 2.952.846.696.564 1.044 1.356 1.044 2.376 0 .792-.21 1.44-.63 1.944-.408.504-.948.834-1.62.99Zm-4.554-.828h2.286c.636 0 1.116-.138 1.44-.414.336-.288.504-.696.504-1.224s-.162-.936-.486-1.224c-.324-.288-.822-.432-1.494-.432h-2.25v3.294Zm2.412 5.31c.672 0 1.188-.144 1.548-.432.36-.3.54-.732.54-1.296 0-.564-.186-.996-.558-1.296-.36-.312-.876-.468-1.548-.468h-2.394v3.492h2.412Zm10.364-8.028c.84 0 1.56.198 2.16.594.6.396 1.026.93 1.278 1.602v-2.07h2.52V23h-2.52v-2.088a3.332 3.332 0 0 1-1.278 1.62c-.6.396-1.32.594-2.16.594-.84 0-1.596-.204-2.268-.612-.672-.408-1.2-.996-1.584-1.764-.372-.78-.558-1.692-.558-2.736 0-1.044.186-1.95.558-2.718.384-.78.912-1.374 1.584-1.782.672-.408 1.428-.612 2.268-.612Zm.792 2.214c-.792 0-1.428.258-1.908.774s-.72 1.224-.72 2.124c0 .9.24 1.608.72 2.124.48.504 1.116.756 1.908.756.768 0 1.398-.258 1.89-.774.504-.528.756-1.23.756-2.106 0-.888-.252-1.59-.756-2.106-.492-.528-1.122-.792-1.89-.792Zm13.406-2.232c1.152 0 2.07.378 2.754 1.134.684.756 1.026 1.818 1.026 3.186V23h-2.52v-5.508c0-.792-.204-1.404-.612-1.836-.408-.444-.966-.666-1.674-.666-.72 0-1.296.234-1.728.702-.432.468-.648 1.14-.648 2.016V23H96.99v-9.972h2.538v1.998a3.144 3.144 0 0 1 1.296-1.566c.612-.384 1.314-.576 2.106-.576ZM114.775 23l-3.294-4.356V23h-2.538V9.68h2.538v7.488l3.276-4.14h3.006l-4.194 4.968L117.871 23h-3.096Z" fill="#5CE1E6"/><path d="M16.406 0a16 16 0 1 0 16 16h-8a8 8 0 1 1-8-8V0Z" fill="#fff"/><path d="M16.406 0a16 16 0 0 0-16 16h8a8 8 0 0 1 8-8V0Z" fill="#5CE1E6"/><circle cx="16.406" cy="16" r="5" fill="#5CE1E6"/><path d="M21.406 16a5 5 0 1 0-10 0h10Z" fill="#fff"/></svg>