<svg width="64" height="64" fill="none" xmlns="http://www.w3.org/2000/svg"><circle cx="32" cy="32" r="32" fill="#09977C" fill-opacity=".1"/><path d="M45.496 16.931a3.093 3.093 0 0 0-3.089-.805l-25.754 7.49c-1.166.323-1.991 1.252-2.214 2.433-.227 1.201.567 2.727 1.604 3.364l8.053 4.95c.826.507 1.892.38 2.575-.31l9.222-9.278a1.174 1.174 0 0 1 1.696 0 1.22 1.22 0 0 1 0 1.707l-9.237 9.28a2.118 2.118 0 0 0-.309 2.59l4.92 8.134A3.056 3.056 0 0 0 35.62 48c.129 0 .273 0 .4-.016 1.25-.161 2.241-1.015 2.61-2.223l7.635-25.721a3.143 3.143 0 0 0-.769-3.109Z" fill="#00F6FF"/></svg>